<?xml version="1.0" encoding="utf-8"?>
<!-- Generator: Adobe Illustrator 18.1.1, SVG Export Plug-In . SVG Version: 6.00 Build 0)  -->
<svg version="1.1" xmlns="http://www.w3.org/2000/svg" xmlns:xlink="http://www.w3.org/1999/xlink" x="0px" y="0px" width="78.6px"
	 height="75.1px" viewBox="-380.6 260.8 78.6 75.1" enable-background="new -380.6 260.8 78.6 75.1" xml:space="preserve">
<g id="Capa_1">
	<g>
		<path fill="#F0EFEF" stroke="#525263" stroke-width="3" stroke-miterlimit="10" d="M-303.6,322.5c0,6.6-5.4,12-12,12h-51.5
			c-6.6,0-12-5.4-12-12v-48.1c0-6.6,5.4-12,12-12h51.5c6.6,0,12,5.4,12,12V322.5z"/>
	</g>
</g>
<g id="Capa_2">
	<path fill-rule="evenodd" clip-rule="evenodd" fill="#535364" d="M-355.1,298.4c0-7.6,6.2-13.7,13.7-13.7c7.6,0,13.7,6.2,13.7,13.7
		c0,7.6-6.3,13.8-13.8,13.7C-349,312.1-355.1,305.9-355.1,298.4z M-339,296.1c0-1,0-1.9,0-2.8c0-2.9,0-2.9-2.9-2.9
		c-1.4,0-1.7,0.3-1.7,1.8c0,1.3,0,2.6,0,4c-1,0-2,0-2.9,0c-2.9,0-2.9,0-2.9,2.9c0,1.4,0.3,1.7,1.7,1.7c1.3,0,2.6,0,4,0
		c0,1.1,0,2,0,2.9c0,2.9,0,2.9,2.8,2.8c1.4,0,1.8-0.4,1.8-1.7c0-1.3,0-2.6,0-4c1.5,0,2.9,0,4.3,0c1,0,1.4-0.4,1.4-1.4
		c0-0.6,0-1.1,0-1.7c0-1.1-0.4-1.5-1.5-1.5C-336.2,296.1-337.6,296.1-339,296.1z"/>
</g>
</svg>
