<?xml version="1.0" encoding="utf-8"?>
<!-- Generator: Adobe Illustrator 18.1.1, SVG Export Plug-In . SVG Version: 6.00 Build 0)  -->
<svg version="1.1" id="Capa_1" xmlns="http://www.w3.org/2000/svg" xmlns:xlink="http://www.w3.org/1999/xlink" x="0px" y="0px"
	 width="30.2px" height="17.6px" viewBox="0 0 30.2 17.6" enable-background="new 0 0 30.2 17.6" xml:space="preserve">
<g>
	<path fill-rule="evenodd" clip-rule="evenodd" fill="#525263" d="M15.1,12.2c3.8-3.8,7.6-7.6,11.3-11.3c1.2-1.2,1.3-1.2,2.6,0
		c1.6,1.6,1.6,1.6,0,3.2c-4.2,4.2-8.4,8.4-12.7,12.7c-1.1,1.1-1.4,1.1-2.5,0C9.5,12.4,5.2,8.1,0.8,3.7c-1.1-1.1-1.1-1.3,0-2.4
		c1.7-1.7,1.7-1.7,3.3,0C7.5,4.6,10.9,8,14.3,11.4C14.5,11.6,14.8,11.9,15.1,12.2z"/>
</g>
</svg>
