<?xml version="1.0" encoding="utf-8"?>
<!-- Generator: Adobe Illustrator 18.1.1, SVG Export Plug-In . SVG Version: 6.00 Build 0)  -->
<svg version="1.1" id="Capa_1" xmlns="http://www.w3.org/2000/svg" xmlns:xlink="http://www.w3.org/1999/xlink" x="0px" y="0px"
	 width="34.4px" height="34.5px" viewBox="0 0 34.4 34.5" enable-background="new 0 0 34.4 34.5" xml:space="preserve">
<g>
	<path fill-rule="evenodd" clip-rule="evenodd" fill="#CC6432" d="M0,17.4C0.1,7.7,7.7,0,17.3,0.1c9.5,0.1,17.1,7.8,17.1,17.3
		c0,9.5-7.8,17.2-17.4,17.1C7.6,34.4-0.1,26.7,0,17.4z M16.1,14.4c0.1-0.1,0.1-0.2,0.1-0.2c1.3-1.3,2.5-2.5,3.8-3.8
		c0.9-0.9,0.8-1.6,0-2.5c-0.6-0.6-1.1-1.1-1.7-1.7c-0.7-0.7-1.5-0.7-2.3,0c-3.3,3.3-6.6,6.6-9.9,9.9c-0.7,0.7-0.7,1.5,0,2.2
		c3.3,3.3,6.7,6.7,10,10c0.7,0.7,1.5,0.7,2.2,0c0.6-0.6,1.2-1.1,1.7-1.7c0.8-0.8,0.8-1.6,0-2.4c-0.5-0.6-1.1-1.1-1.6-1.6
		c-0.8-0.7-1.5-1.5-2.3-2.2c0-0.1,0.1-0.1,0.1-0.2c0.3,0,0.5,0,0.8,0c3.3,0,6.6,0,9.9,0c1.2,0,1.8-0.5,1.8-1.7c0-0.8,0-1.5,0-2.3
		c0-1.2-0.6-1.7-1.8-1.7c-2.6,0-5.2,0-7.8,0C18.1,14.4,17.2,14.4,16.1,14.4z"/>
</g>
</svg>
