<?xml version="1.0" encoding="utf-8"?>
<!-- Generator: Adobe Illustrator 18.1.1, SVG Export Plug-In . SVG Version: 6.00 Build 0)  -->
<svg version="1.1" id="Capa_1" xmlns="http://www.w3.org/2000/svg" xmlns:xlink="http://www.w3.org/1999/xlink" x="0px" y="0px"
	 width="28.7px" height="24.9px" viewBox="0 0 28.7 24.9" enable-background="new 0 0 28.7 24.9" xml:space="preserve">
<g>
	<g>
		<path fill-rule="evenodd" clip-rule="evenodd" fill="#525263" d="M14.3,24.9c-3.4,0-6.9,0-10.3,0c-1.9,0-3.4-1.1-3.9-2.8
			C0,21.7,0,21.2,0,20.8c0-4.3,0-8.6,0-12.9c0-2.5,1.6-4.1,4.1-4.1c0.9,0,1.8,0,2.7,0c0.3,0,0.4-0.1,0.5-0.3C7.5,3,7.7,2.5,7.9,2
			c0.5-1.3,1.5-2,2.9-2c2.4,0,4.8,0,7.2,0c1.3,0,2.4,0.7,2.9,2c0.2,0.5,0.4,1,0.6,1.5c0.1,0.3,0.2,0.3,0.5,0.3c0.9,0,1.9,0,2.8,0
			c2.4,0,4,1.6,4,4c0,4.4,0,8.7,0,13.1c0,2.4-1.6,4-4,4C21.2,24.9,17.8,24.9,14.3,24.9z M21.1,14.4c0-3.7-3-6.7-6.7-6.8
			c-3.7,0-6.7,3-6.7,6.7c0,3.7,3,6.7,6.6,6.7C18,21.1,21,18.1,21.1,14.4z"/>
		<path fill-rule="evenodd" clip-rule="evenodd" fill="#525263" d="M14.4,18.6c2.4,0,4.3-1.9,4.3-4.3c0-2.4-1.9-4.3-4.3-4.3
			c-2.4,0-4.3,1.9-4.3,4.3C10,16.7,12,18.6,14.4,18.6z"/>
		<path fill-rule="evenodd" clip-rule="evenodd" fill="#525263" d="M14.4,18.6c-2.4,0-4.3-1.9-4.3-4.3c0-2.4,1.9-4.3,4.3-4.3
			c2.4,0,4.3,2,4.3,4.3C18.6,16.7,16.7,18.6,14.4,18.6z"/>
	</g>
</g>
</svg>
