<?xml version="1.0" encoding="utf-8"?>
<!-- Generator: Adobe Illustrator 18.1.1, SVG Export Plug-In . SVG Version: 6.00 Build 0)  -->
<svg version="1.1" id="Capa_1" xmlns="http://www.w3.org/2000/svg" xmlns:xlink="http://www.w3.org/1999/xlink" x="0px" y="0px"
	 width="86.8px" height="82.9px" viewBox="0 0 86.8 82.9" enable-background="new 0 0 86.8 82.9" xml:space="preserve">
<g>
	<path fill="#F0EFEF" stroke="#525263" stroke-width="3" stroke-miterlimit="10" d="M86.4,68.9c0,7.4-6,13.4-13.5,13.4H15.1
		c-7.4,0-13.5-6-13.5-13.4V15.1c0-7.4,6-13.4,13.5-13.4h57.8c7.4,0,13.5,6,13.5,13.4V68.9z"/>
	<path fill="#525263" d="M48.9,34.1c2.3,1.4,3.9,3.9,4.2,6.7c0.9,0.4,2,0.7,3.1,0.7c4,0,7.3-3.3,7.3-7.3c0-4-3.2-7.3-7.3-7.3
		C52.2,26.8,49,30.1,48.9,34.1L48.9,34.1z M44.1,49.1c4,0,7.3-3.3,7.3-7.3c0-4-3.2-7.3-7.3-7.3c-4,0-7.3,3.3-7.3,7.3
		C36.9,45.8,40.1,49.1,44.1,49.1L44.1,49.1z M47.2,49.6h-6.2c-5.1,0-9.3,4.2-9.3,9.4v7.6l0,0.1l0.5,0.2c4.9,1.5,9.1,2.1,12.6,2.1
		c6.8,0,10.8-2,11-2.1l0.5-0.2h0.1v-7.6C56.5,53.8,52.3,49.6,47.2,49.6L47.2,49.6z M59.2,42h-6.1c-0.1,2.5-1.1,4.7-2.8,6.3
		c4.6,1.4,7.9,5.6,7.9,10.7v2.3c6-0.2,9.5-1.9,9.7-2.1l0.5-0.2h0.1v-7.6C68.5,46.2,64.3,42,59.2,42L59.2,42z M31.4,41.5
		c1.4,0,2.7-0.4,3.9-1.1c0.4-2.3,1.6-4.4,3.4-5.8c0-0.1,0-0.3,0-0.4c0-4-3.2-7.3-7.3-7.3c-4,0-7.3,3.3-7.3,7.3
		C24.2,38.2,27.4,41.5,31.4,41.5L31.4,41.5z M37.9,48.3c-1.6-1.6-2.7-3.8-2.8-6.3c-0.2,0-0.5,0-0.7,0h-6.2c-5.1,0-9.3,4.2-9.3,9.4
		V59l0,0.1l0.5,0.2c3.9,1.2,7.4,1.8,10.5,2v-2.3C30,53.9,33.4,49.6,37.9,48.3L37.9,48.3z M74.1,59.2"/>
</g>
</svg>
