<?xml version="1.0" encoding="utf-8"?>
<!-- Generator: Adobe Illustrator 18.1.1, SVG Export Plug-In . SVG Version: 6.00 Build 0)  -->
<svg version="1.1" id="Capa_1" xmlns="http://www.w3.org/2000/svg" xmlns:xlink="http://www.w3.org/1999/xlink" x="0px" y="0px"
	 width="79px" height="75.8px" viewBox="-381 260.5 79 75.8" enable-background="new -381 260.5 79 75.8" xml:space="preserve">
<g>
	<path fill="#F0EFEF" stroke="#525263" stroke-width="3" stroke-miterlimit="10" d="M-303.6,322.5c0,6.6-5.4,12-12,12h-51.5
		c-6.6,0-12-5.4-12-12v-48.1c0-6.6,5.4-12,12-12h51.5c6.6,0,12,5.4,12,12V322.5z"/>
	<path fill="#525263" d="M-337.1,286.7c2.1,1.3,3.5,3.5,3.8,6.1c0.8,0.4,1.8,0.6,2.8,0.6c3.6,0,6.6-3,6.6-6.7c0-3.7-3-6.7-6.6-6.7
		C-334.1,280.2-337,283.1-337.1,286.7L-337.1,286.7z M-341.4,300.4c3.6,0,6.6-3,6.6-6.7c0-3.7-2.9-6.7-6.6-6.7c-3.6,0-6.6,3-6.6,6.7
		C-348,297.4-345,300.4-341.4,300.4L-341.4,300.4z M-338.6,300.8h-5.6c-4.7,0-8.4,3.8-8.4,8.5v6.9v0.1l0.5,0.1
		c4.4,1.4,8.3,1.9,11.5,1.9c6.2,0,9.8-1.8,10-1.9l0.4-0.2l0,0v-6.9C-330.1,304.6-333.9,300.8-338.6,300.8L-338.6,300.8z M-327.7,294
		h-5.5c-0.1,2.2-1,4.3-2.5,5.7c4.1,1.2,7.2,5.1,7.2,9.7v2.1c5.5-0.2,8.6-1.8,8.8-1.9l0.4-0.2l0,0v-6.9
		C-319.2,297.8-323,294-327.7,294L-327.7,294z M-352.9,293.5c1.3,0,2.5-0.4,3.5-1c0.3-2.1,1.5-4,3.1-5.3c0-0.1,0-0.2,0-0.4
		c0-3.7-3-6.7-6.6-6.7s-6.6,3-6.6,6.7C-359.5,290.5-356.6,293.5-352.9,293.5L-352.9,293.5z M-347,299.7c-1.5-1.4-2.4-3.5-2.5-5.7
		c-0.2,0-0.4,0-0.6,0h-5.6c-4.7,0-8.4,3.8-8.4,8.5v6.9v0.1l0.5,0.1c3.6,1.1,6.7,1.6,9.5,1.8v-2.1
		C-354.2,304.8-351.2,300.9-347,299.7L-347,299.7z"/>
</g>
</svg>
