<?xml version="1.0" encoding="utf-8"?>
<!-- Generator: Adobe Illustrator 18.1.1, SVG Export Plug-In . SVG Version: 6.00 Build 0)  -->
<svg version="1.1" id="Capa_1" xmlns="http://www.w3.org/2000/svg" xmlns:xlink="http://www.w3.org/1999/xlink" x="0px" y="0px"
	 width="54.9px" height="52.4px" viewBox="0 0 54.9 52.4" enable-background="new 0 0 54.9 52.4" xml:space="preserve">
<g>
	<path fill="#F0EFEF" stroke="#525263" stroke-width="3" stroke-miterlimit="10" d="M53.3,42.7c0,4.5-3.7,8.2-8.2,8.2H9.9
		c-4.5,0-8.2-3.7-8.2-8.2V9.9c0-4.5,3.7-8.2,8.2-8.2h35.2c4.5,0,8.2,3.7,8.2,8.2V42.7z"/>
	<path fill="#525263" d="M30.4,21.4c1.4,0.9,2.4,2.4,2.5,4.1c0.6,0.3,1.2,0.4,1.9,0.4c2.4,0,4.4-2,4.4-4.5c0-2.5-2-4.5-4.4-4.5
		C32.4,17,30.5,19,30.4,21.4L30.4,21.4z M27.5,30.6c2.4,0,4.4-2,4.4-4.5c0-2.5-2-4.5-4.4-4.5c-2.4,0-4.4,2-4.4,4.5
		C23.1,28.6,25.1,30.6,27.5,30.6L27.5,30.6z M29.4,30.9h-3.8c-3.1,0-5.7,2.6-5.7,5.7v4.6l0,0.1l0.3,0.1c3,0.9,5.6,1.3,7.7,1.3
		c4.2,0,6.6-1.2,6.7-1.3l0.3-0.2h0v-4.6C35.1,33.4,32.5,30.9,29.4,30.9L29.4,30.9z M36.7,26.3H33c0,1.5-0.7,2.9-1.7,3.8
		c2.8,0.8,4.8,3.4,4.8,6.5V38c3.7-0.1,5.8-1.2,5.9-1.3l0.3-0.2h0V32C42.4,28.8,39.9,26.3,36.7,26.3L36.7,26.3z M19.8,25.9
		c0.9,0,1.7-0.3,2.4-0.7c0.2-1.4,1-2.7,2.1-3.5c0-0.1,0-0.2,0-0.3c0-2.5-2-4.5-4.4-4.5c-2.4,0-4.4,2-4.4,4.5
		C15.4,23.9,17.4,25.9,19.8,25.9L19.8,25.9z M23.8,30.1c-1-1-1.6-2.3-1.7-3.8c-0.1,0-0.3,0-0.4,0h-3.8c-3.1,0-5.7,2.6-5.7,5.7v4.6
		l0,0.1l0.3,0.1c2.4,0.8,4.5,1.1,6.4,1.2v-1.4C19,33.5,21,30.9,23.8,30.1L23.8,30.1z M45.8,36.8"/>
</g>
</svg>
