<?xml version="1.0" encoding="utf-8"?>
<!-- Generator: Adobe Illustrator 18.1.1, SVG Export Plug-In . SVG Version: 6.00 Build 0)  -->
<svg version="1.1" id="Capa_1" xmlns="http://www.w3.org/2000/svg" xmlns:xlink="http://www.w3.org/1999/xlink" x="0px" y="0px"
	 width="29px" height="24.7px" viewBox="0 0 29 24.7" enable-background="new 0 0 29 24.7" xml:space="preserve">
<path fill="#525263" d="M17.5,4.2c1.3,0.9,2.3,2.3,2.5,4c0.5,0.3,1.2,0.4,1.8,0.4c2.4,0,4.3-1.9,4.3-4.3c0-2.4-1.9-4.3-4.3-4.3
	C19.5,0,17.6,1.9,17.5,4.2L17.5,4.2z M14.7,13.1c2.4,0,4.3-1.9,4.3-4.3c0-2.4-1.9-4.3-4.3-4.3c-2.4,0-4.3,1.9-4.3,4.3
	C10.5,11.1,12.4,13.1,14.7,13.1L14.7,13.1z M16.6,13.3h-3.6c-3,0-5.5,2.5-5.5,5.5v4.5l0,0.1l0.3,0.1c2.9,0.9,5.4,1.2,7.4,1.2
	c4,0,6.3-1.2,6.5-1.2l0.3-0.1h0v-4.5C22,15.8,19.6,13.3,16.6,13.3L16.6,13.3z M23.6,8.9H20c0,1.4-0.7,2.8-1.6,3.7
	c2.7,0.8,4.6,3.3,4.6,6.3v1.4c3.5-0.1,5.6-1.1,5.7-1.2l0.3-0.1h0v-4.5C29.1,11.4,26.6,8.9,23.6,8.9L23.6,8.9z M7.3,8.6
	c0.8,0,1.6-0.2,2.3-0.7c0.2-1.4,0.9-2.6,2-3.4c0-0.1,0-0.2,0-0.2C11.5,1.9,9.6,0,7.3,0C4.9,0,3,1.9,3,4.3C3,6.7,4.9,8.6,7.3,8.6
	L7.3,8.6z M11.1,12.6c-1-0.9-1.6-2.2-1.6-3.7c-0.1,0-0.3,0-0.4,0H5.5c-3,0-5.5,2.5-5.5,5.5v4.5L0,19L0.3,19c2.3,0.7,4.4,1.1,6.1,1.2
	v-1.3C6.5,15.9,8.4,13.4,11.1,12.6L11.1,12.6z M32.4,19"/>
</svg>
