<?xml version="1.0" encoding="utf-8"?>
<!-- Generator: Adobe Illustrator 18.1.1, SVG Export Plug-In . SVG Version: 6.00 Build 0)  -->
<svg version="1.1" id="Capa_1" xmlns="http://www.w3.org/2000/svg" xmlns:xlink="http://www.w3.org/1999/xlink" x="0px" y="0px"
	 width="78.6px" height="75.1px" viewBox="-381 260.2 78.6 75.1" enable-background="new -381 260.2 78.6 75.1"
	 xml:space="preserve">
<g id="Capa_1_1_">
	<g>
		<path fill="#F0EFEF" stroke="#525263" stroke-width="3" stroke-miterlimit="10" d="M-304,321.8c0,6.6-5.4,12-12,12h-51.5
			c-6.6,0-12-5.4-12-12v-48.1c0-6.6,5.4-12,12-12h51.5c6.6,0,12,5.4,12,12V321.8z"/>
	</g>
</g>
<g>
	<path fill-rule="evenodd" clip-rule="evenodd" fill="#535364" d="M-358.1,314.5c0-0.7,0-1.3,0-2c0-2.2,0-4.4,0-6.7
		c0-0.3,0.1-0.7,0.3-0.9c6-6,12-12,18-18c0,0,0.1-0.1,0,0c3.1,3.1,6.1,6.1,9.2,9.2c-0.1,0.1-0.2,0.3-0.4,0.4
		c-5.8,5.8-11.6,11.6-17.4,17.4c-0.4,0.4-0.7,0.5-1.2,0.5c-2.6,0-5.1,0-7.7,0C-357.5,314.5-357.8,314.5-358.1,314.5z M-348.1,309.8
		c-1.8-1.8-3.5-3.5-5.2-5.2c-1.3,1-2.6,2.2-1.8,4.3c0.8,0,1.7,0,2.7,0c0,1,0,1.9,0,2.8c0.6,0,1.2,0,1.7,0c0.3,0,0.6,0,0.8-0.2
		C-349.3,311-348.7,310.4-348.1,309.8z M-338.4,291.1c-0.1-0.2-0.3-0.4-0.3-0.4c-0.3,0-0.6,0.1-0.8,0.3c-3.9,3.9-7.8,7.7-11.7,11.6
		c-0.3,0.3-0.5,0.6-0.2,0.9c0.2,0.1,0.7,0,0.9-0.2c3.9-3.9,7.8-7.7,11.6-11.6C-338.7,291.5-338.6,291.3-338.4,291.1z"/>
	<path fill-rule="evenodd" clip-rule="evenodd" fill="#535364" d="M-329.1,294.5c-3-3-6-6-8.9-8.9c1.3-1.4,2.5-2.9,3.9-4.2
		c0.8-0.8,2.3-0.7,3.2,0.2c1.9,1.8,3.8,3.7,5.7,5.7c0.9,1,0.9,2.5,0,3.5C-326.4,292.1-327.8,293.3-329.1,294.5z"/>
</g>
</svg>
