<?xml version="1.0" encoding="utf-8"?>
<!-- Generator: Adobe Illustrator 18.1.1, SVG Export Plug-In . SVG Version: 6.00 Build 0)  -->
<svg version="1.1" id="Capa_1" xmlns="http://www.w3.org/2000/svg" xmlns:xlink="http://www.w3.org/1999/xlink" x="0px" y="0px"
	 width="26.2px" height="26.2px" viewBox="0 0 26.2 26.2" enable-background="new 0 0 26.2 26.2" xml:space="preserve">
<path fill-rule="evenodd" clip-rule="evenodd" fill="#525263" d="M26.2,13.1c0.1,7.1-5.7,13-12.9,13.1C6,26.3,0.1,20.6,0,13.3
	C-0.1,6.1,5.7,0.1,12.9,0C20.1-0.1,26.2,5.7,26.2,13.1z M10.9,18c-0.5,0-1,0-1.4,0c-0.5,0-0.8,0.2-0.8,0.7c0,0.8,0,1.6,0,2.5
	c0,0.5,0.2,0.7,0.7,0.7c2.4,0,4.9,0,7.3,0c0.5,0,0.7-0.2,0.7-0.7c0-0.8,0-1.6,0-2.5c0-0.5-0.3-0.7-0.8-0.7c-0.5,0-0.9,0-1.4,0
	c0-0.3,0-0.5,0-0.7c0-2.6,0-5.1,0-7.7c0-0.7-0.1-0.8-0.8-0.8c-1.7,0-3.4,0-5.1,0C9,8.7,8.7,8.9,8.7,9.4c0,0.8,0,1.7,0,2.5
	c0,0.4,0.2,0.7,0.7,0.7c0.5,0,1,0,1.5,0C10.9,14.4,10.9,16.2,10.9,18z M13.1,6.6c0.5,0,1,0,1.5,0c0.5,0,0.7-0.2,0.7-0.7
	c0-0.8,0-1.7,0-2.5c0-0.4-0.2-0.7-0.7-0.7c-1,0-2,0-3.1,0c-0.4,0-0.6,0.2-0.7,0.6c0,0.9,0,1.7,0,2.6c0,0.4,0.2,0.7,0.7,0.6
	C12.1,6.5,12.6,6.6,13.1,6.6z"/>
</svg>
