<?xml version="1.0" encoding="utf-8"?>
<!-- Generator: Adobe Illustrator 18.1.1, SVG Export Plug-In . SVG Version: 6.00 Build 0)  -->
<svg version="1.1" xmlns="http://www.w3.org/2000/svg" xmlns:xlink="http://www.w3.org/1999/xlink" x="0px" y="0px" width="78.6px"
	 height="75.1px" viewBox="-380.6 260.8 78.6 75.1" enable-background="new -380.6 260.8 78.6 75.1" xml:space="preserve">
<g id="Capa_1">
	<g>
		<path fill="#F0EFEF" stroke="#525263" stroke-width="3" stroke-miterlimit="10" d="M-303.6,322.5c0,6.6-5.4,12-12,12h-51.5
			c-6.6,0-12-5.4-12-12v-48.1c0-6.6,5.4-12,12-12h51.5c6.6,0,12,5.4,12,12V322.5z"/>
	</g>
</g>
<g id="Capa_4">
	<g>
		<path fill-rule="evenodd" clip-rule="evenodd" fill="#535364" d="M-341.4,294c-3.8,3.8-7.6,7.6-11.3,11.3c-1.2,1.2-1.3,1.2-2.6,0
			c-1.6-1.6-1.6-1.6,0-3.2c4.2-4.2,8.4-8.4,12.7-12.7c1.1-1.1,1.4-1.1,2.5,0c4.4,4.4,8.7,8.7,13.1,13.1c1.1,1.1,1.1,1.3,0,2.4
			c-1.7,1.7-1.7,1.7-3.3,0c-3.4-3.4-6.8-6.8-10.1-10.1C-340.8,294.5-341,294.3-341.4,294z"/>
	</g>
</g>
</svg>
