<?xml version="1.0" encoding="utf-8"?>
<!-- Generator: Adobe Illustrator 18.1.1, SVG Export Plug-In . SVG Version: 6.00 Build 0)  -->
<svg version="1.1" id="Capa_1" xmlns="http://www.w3.org/2000/svg" xmlns:xlink="http://www.w3.org/1999/xlink" x="0px" y="0px"
	 width="79px" height="75.8px" viewBox="0 0 79 75.8" enable-background="new 0 0 79 75.8" xml:space="preserve">
<g>
	<path fill="#F0EFEF" stroke="#525263" stroke-width="3" stroke-miterlimit="10" d="M77.4,62c0,6.6-5.4,12-12,12H13.9
		c-6.6,0-12-5.4-12-12V13.9c0-6.6,5.4-12,12-12h51.5c6.6,0,12,5.4,12,12V62z"/>
	<g>
		<path fill="#525263" d="M55.6,31.1c0,0.6-0.6,1.1-1.4,1.1H25c-0.8,0-1.4-0.5-1.4-1.1v-2c0-0.6,0.6-1.1,1.4-1.1h29.3
			c0.8,0,1.4,0.5,1.4,1.1V31.1z"/>
		<g>
			<path fill="#525263" d="M55.6,39c0,0.6-0.6,1.1-1.4,1.1H25c-0.8,0-1.4-0.5-1.4-1.1v-2c0-0.6,0.6-1.1,1.4-1.1h29.3
				c0.8,0,1.4,0.5,1.4,1.1V39z"/>
		</g>
		<g>
			<path fill="#525263" d="M55.6,47.2c0,0.6-0.6,1.1-1.4,1.1H25c-0.8,0-1.4-0.5-1.4-1.1v-2c0-0.6,0.6-1.1,1.4-1.1h29.3
				c0.8,0,1.4,0.5,1.4,1.1V47.2z"/>
		</g>
	</g>
</g>
</svg>
