<?xml version="1.0" encoding="utf-8"?>
<!-- Generator: Adobe Illustrator 18.1.1, SVG Export Plug-In . SVG Version: 6.00 Build 0)  -->
<svg version="1.1" id="Capa_1" xmlns="http://www.w3.org/2000/svg" xmlns:xlink="http://www.w3.org/1999/xlink" x="0px" y="0px"
	 width="78.6px" height="75.1px" viewBox="-380.6 260.8 78.6 75.1" enable-background="new -380.6 260.8 78.6 75.1"
	 xml:space="preserve">
<g>
	<path fill="#F0EFEF" stroke="#525263" stroke-width="3" stroke-miterlimit="10" d="M-303.6,322.5c0,6.6-5.4,12-12,12h-51.5
		c-6.6,0-12-5.4-12-12v-48.1c0-6.6,5.4-12,12-12h51.5c6.6,0,12,5.4,12,12V322.5z"/>
</g>
<g>
	<path fill-rule="evenodd" clip-rule="evenodd" fill="#535364" d="M-344.1,297.8c0-0.7,0.5-1.8,1.5-2.7c3.1-2.8,6.2-5.7,9.4-8.5
		c0.7-0.6,1.5-0.9,2.4-0.8c1.7,0.3,2.6,1.8,1.9,3.5c-0.5,1.2-1.1,2.4-1.7,3.5c-1.4,2.6-2.9,5.3-4.7,7.7c-0.8,1-1.7,1.9-3,2.3
		C-341.1,303.7-344.1,301.4-344.1,297.8z"/>
	<path fill-rule="evenodd" clip-rule="evenodd" fill="#535364" d="M-355.2,304c0.7,0.5,1.4,0.9,2.1,1.4c0.2,0.1,0.3,0.2,0.5,0.3
		c0.6,0.3,1,0.1,1.3-0.5c0.3-0.6,0.6-1.2,0.9-1.7c0.9-1.4,2.4-1.9,4-2.1c0.1,0,0.3,0,0.4,0c0.8-0.1,1.4-0.1,1.9,0.7
		c0.6,1,1.6,1.7,2.8,2.1c0.4,0.1,0.5,0.3,0.5,0.7c0,1.2,0,2.4-0.5,3.5c-1,2.4-2.8,3.7-5.3,4.1c-1.6,0.3-3.2,0.1-4.7-0.7
		c-1.9-1-2.9-2.7-3.4-4.7c-0.3-1-0.3-2-0.5-3C-355.4,304-355.3,304-355.2,304z"/>
</g>
</svg>
