<?xml version="1.0" encoding="utf-8"?>
<!-- Generator: Adobe Illustrator 18.1.1, SVG Export Plug-In . SVG Version: 6.00 Build 0)  -->
<svg version="1.1" id="Capa_1" xmlns="http://www.w3.org/2000/svg" xmlns:xlink="http://www.w3.org/1999/xlink" x="0px" y="0px"
	 width="21.6px" height="21.7px" viewBox="0 0 21.6 21.7" enable-background="new 0 0 21.6 21.7" xml:space="preserve">
<g>
	<path fill="#F0EFEF" d="M21.5,21.1c0,0.3-0.3,0.6-0.6,0.6l-20.2,0c-0.3,0-0.6-0.3-0.6-0.6l0-20.3c0-0.3,0.3-0.6,0.6-0.6l20.2,0
		c0.3,0,0.6,0.3,0.6,0.6L21.5,21.1z"/>
	<polygon fill="#525263" points="17.3,10.2 11.3,10.2 11.3,4.2 10.5,4.2 10.5,10.2 4.5,10.2 4.5,11 10.5,11 10.5,17 11.3,17 
		11.3,11 17.3,11 	"/>
</g>
</svg>
