<?xml version="1.0" encoding="utf-8"?>
<!-- Generator: Adobe Illustrator 18.1.1, SVG Export Plug-In . SVG Version: 6.00 Build 0)  -->
<svg version="1.1" xmlns="http://www.w3.org/2000/svg" xmlns:xlink="http://www.w3.org/1999/xlink" x="0px" y="0px" width="78.6px"
	 height="75.1px" viewBox="-380.6 260.8 78.6 75.1" enable-background="new -380.6 260.8 78.6 75.1" xml:space="preserve">
<g id="Capa_1">
	<g>
		<path fill="#F0EFEF" stroke="#525263" stroke-width="3" stroke-miterlimit="10" d="M-303.6,322.5c0,6.6-5.4,12-12,12h-51.5
			c-6.6,0-12-5.4-12-12v-48.1c0-6.6,5.4-12,12-12h51.5c6.6,0,12,5.4,12,12V322.5z"/>
	</g>
</g>
<g id="Capa_3">
	<path fill-rule="evenodd" clip-rule="evenodd" fill="#535364" d="M-330.1,296.2c0.6,0,1.1-0.1,1.6,0c1.9,0.2,3.1,1.7,3.1,3.6
		c0,2,0,4,0,6c0,0.5,0,1,0,1.5c0,0.6-0.2,0.8-0.8,0.8c-1.2,0-2.4,0-3.6,0c-0.1,0-0.2,0-0.3,0c0,0.1,0,0.2,0,0.3c0,0.9,0,1.7,0,2.6
		c0,1.2-0.7,1.9-1.9,1.9c-5.9,0-11.7,0-17.6,0c-1.2,0-1.9-0.7-1.9-1.9c0-0.9,0-1.9,0-2.9c-0.1,0-0.2,0-0.3,0c-1.2,0-2.4,0-3.7,0
		c-0.5,0-0.8-0.2-0.8-0.8c0-2.5,0-5,0-7.5c0-2,1.6-3.6,3.6-3.6c0.4,0,0.7,0,1.1,0c0-0.1,0-0.3,0-0.4c0-3.2,0-6.3,0-9.5
		c0-1.3,0.7-2,2-2c4,0,8,0,12,0c1.3,0,2.4,0.4,3.3,1.3c1,0.9,2,1.9,2.9,2.9c0.8,0.9,1.2,1.9,1.2,3.1c0,1.4,0,2.8,0,4.2
		C-330.1,295.9-330.1,296-330.1,296.2z M-337.2,286.7c-4,0-7.9,0-11.9,0c0,4,0,7.9,0,11.8c5.5,0,11.1,0,16.6,0c0-2.4,0-4.7,0-7.1
		c0,0-0.1,0-0.1,0c-0.9,0-1.8,0-2.7,0c-1.2,0-2-0.7-2-2C-337.2,288.5-337.2,287.6-337.2,286.7z M-332.5,305.6c-5.5,0-11.1,0-16.6,0
		c0,1.6,0,3.2,0,4.7c5.5,0,11.1,0,16.6,0C-332.5,308.8-332.5,307.2-332.5,305.6z M-328.9,298.5c-0.6,0-1.2,0.6-1.2,1.2
		c0,0.6,0.6,1.2,1.2,1.2c0.6,0,1.2-0.6,1.2-1.2C-327.7,299-328.3,298.5-328.9,298.5z"/>
</g>
</svg>
