<?xml version="1.0" encoding="utf-8"?>
<!-- Generator: Adobe Illustrator 18.1.1, SVG Export Plug-In . SVG Version: 6.00 Build 0)  -->
<svg version="1.1" xmlns="http://www.w3.org/2000/svg" xmlns:xlink="http://www.w3.org/1999/xlink" x="0px" y="0px" width="78.6px"
	 height="75.1px" viewBox="-380.6 260.8 78.6 75.1" enable-background="new -380.6 260.8 78.6 75.1" xml:space="preserve">
<g id="Capa_1">
	<g>
		<path fill="#F0EFEF" stroke="#525263" stroke-width="3" stroke-miterlimit="10" d="M-303.6,322.5c0,6.6-5.4,12-12,12h-51.5
			c-6.6,0-12-5.4-12-12v-48.1c0-6.6,5.4-12,12-12h51.5c6.6,0,12,5.4,12,12V322.5z"/>
	</g>
</g>
<g id="Capa_2">
	<path fill-rule="evenodd" clip-rule="evenodd" fill="#535364" d="M-356,298.3c0-2.9,2.1-5,4.2-5.6c2.1-0.6,4.1-0.3,5.8,1.1
		c0.2,0.2,0.3,0.2,0.6,0.1c2.1-1.1,4.2-2.1,6.3-3.1c0.2-0.1,0.3-0.2,0.3-0.5c-0.3-3.9,3.2-7,7.1-6.4c4.1,0.7,6.3,5.1,4.4,8.8
		c-1.8,3.5-6.4,4.4-9.3,1.8c-0.2-0.1-0.3-0.2-0.5-0.1c-2.1,1.1-4.2,2.1-6.3,3.2c-0.2,0.1-0.3,0.2-0.3,0.5c0,0.2,0,0.5,0,0.8
		c0,0.2,0,0.3,0.2,0.3c2.2,1.1,4.3,2.1,6.5,3.2c0.2,0.1,0.3,0,0.4-0.1c2-1.7,4.3-2,6.6-0.8c4.1,2,4.4,7.2,1.5,9.9
		c-3.2,2.9-8.2,1.8-9.8-2.1c-0.4-0.9-0.5-1.8-0.4-2.7c0-0.2,0-0.3-0.2-0.4c-2.1-1.1-4.3-2.1-6.4-3.2c-0.2-0.1-0.3-0.1-0.4,0
		c-2,1.7-4.3,1.9-6.7,0.9C-354.7,303-356.1,300.6-356,298.3z"/>
</g>
</svg>
