<?xml version="1.0" encoding="utf-8"?>
<!-- Generator: Adobe Illustrator 18.1.1, SVG Export Plug-In . SVG Version: 6.00 Build 0)  -->
<svg version="1.1" id="Capa_1" xmlns="http://www.w3.org/2000/svg" xmlns:xlink="http://www.w3.org/1999/xlink" x="0px" y="0px"
	 width="24.8px" height="23.7px" viewBox="0 0 24.8 23.7" enable-background="new 0 0 24.8 23.7" xml:space="preserve">
<path fill-rule="evenodd" clip-rule="evenodd" fill="#525263" d="M4.5,22.7c0.2-1.2,0.4-2.5,0.6-3.8c0.2-1.2,0.4-2.3,0.6-3.5
	c0.1-0.3-0.1-0.5-0.3-0.7c-1.6-1.5-3.2-3.1-4.7-4.6c-0.1-0.1-0.2-0.2-0.3-0.3C0.2,9.7-0.1,9.4,0,9c0.1-0.4,0.5-0.5,0.9-0.5
	c2.3-0.3,4.7-0.7,7-1c0.3,0,0.5-0.2,0.6-0.4c1-2.1,2-4.1,3.1-6.2c0,0,0-0.1,0-0.1C11.8,0.4,12,0,12.4,0c0.5,0,0.6,0.4,0.8,0.7
	c1,2.1,2.1,4.2,3.1,6.2c0.1,0.3,0.3,0.4,0.7,0.5c2.3,0.3,4.6,0.7,6.9,1c0.1,0,0.3,0,0.4,0.1c0.6,0.2,0.7,0.6,0.3,1.1
	c-0.3,0.4-0.7,0.8-1.1,1.1c-1.4,1.4-2.8,2.7-4.2,4.1c-0.2,0.2-0.3,0.4-0.2,0.8c0.4,2.3,0.8,4.5,1.2,6.8c0,0.1,0,0.2,0,0.2
	c-0.1,0.3-0.1,0.7-0.3,0.9c-0.2,0.1-0.7,0.1-0.9-0.1c-1.8-0.9-3.6-1.8-5.4-2.8c-1-0.6-1.7-0.6-2.7,0c-1.7,1-3.4,1.8-5.1,2.7
	c-0.1,0.1-0.3,0.1-0.4,0.2C4.9,23.8,4.5,23.5,4.5,22.7z"/>
</svg>
