<?xml version="1.0" encoding="utf-8"?>
<!-- Generator: Adobe Illustrator 18.1.1, SVG Export Plug-In . SVG Version: 6.00 Build 0)  -->
<svg version="1.1" id="Capa_1" xmlns="http://www.w3.org/2000/svg" xmlns:xlink="http://www.w3.org/1999/xlink" x="0px" y="0px"
	 width="151.1px" height="98.7px" viewBox="0 0 151.1 98.7" enable-background="new 0 0 151.1 98.7" xml:space="preserve">
<g>
	<g>
		<defs>
			<path id="SVGID_1_" d="M129.8,31.2c-0.4,0.2-0.8,0.4-1.2,0.6c-14.6,7.9-24.1,7.3-29.8,4.5c-1.2-0.6-2.2-1.3-3.1-2
				c0.6,0.5,2.7,2.5,4.6,5.6c1.2,1.9,2.3,4.3,2.9,7l28.3-10l17.7-6.3c-0.4-0.7-0.9-1.4-1.3-2.1c-1.1-0.9-2.6-1.7-5-1.7
				C140.1,26.9,136,27.9,129.8,31.2"/>
		</defs>
		<clipPath id="SVGID_2_">
			<use xlink:href="#SVGID_1_"  overflow="visible"/>
		</clipPath>
		
			<radialGradient id="SVGID_3_" cx="-195.5599" cy="320.4918" r="1.3153" gradientTransform="matrix(21.9133 -8.0965 -1.8027 -4.8791 4987.0659 17.5772)" gradientUnits="userSpaceOnUse">
			<stop  offset="0" style="stop-color:#C22E2C"/>
			<stop  offset="0.6989" style="stop-color:#821A1E"/>
			<stop  offset="1" style="stop-color:#821A1E"/>
		</radialGradient>
		<polygon clip-path="url(#SVGID_2_)" fill="url(#SVGID_3_)" points="89.2,29.3 142.8,9.4 155.8,44.5 102.1,64.4 		"/>
	</g>
	<g>
		<defs>
			<path id="SVGID_4_" d="M98.4,12c-2.8,1-5.4,2.2-7.9,3.8l0,0c0.8,1.5,2.8,5.3,4,10c0.7,2.6,1.2,5.5,1.1,8.5c0,0,0.1,0.1,0.2,0.2
				c0.9,0.7,1.9,1.4,3.1,2c5.8,2.8,15.2,3.4,29.8-4.5c0.4-0.2,0.8-0.4,1.2-0.6c-1.4-6.1-1.4-12.3-0.3-18.1c-0.1,0-0.1-0.1-0.2-0.1
				c-5.4-2.3-11.1-3.5-16.8-3.5C107.8,9.5,103,10.3,98.4,12"/>
		</defs>
		<clipPath id="SVGID_5_">
			<use xlink:href="#SVGID_4_"  overflow="visible"/>
		</clipPath>
		
			<radialGradient id="SVGID_6_" cx="-195.4869" cy="330.1805" r="1.3153" gradientTransform="matrix(25.8524 -1.9289 -0.7623 -10.2169 5416.5137 3018.6108)" gradientUnits="userSpaceOnUse">
			<stop  offset="0" style="stop-color:#F2D32C"/>
			<stop  offset="0.1037" style="stop-color:#F1CF2C"/>
			<stop  offset="0.2389" style="stop-color:#ECC32E"/>
			<stop  offset="0.3915" style="stop-color:#E4AF2F"/>
			<stop  offset="0.5569" style="stop-color:#DA942F"/>
			<stop  offset="0.7306" style="stop-color:#D0742E"/>
			<stop  offset="0.862" style="stop-color:#C8522C"/>
			<stop  offset="1" style="stop-color:#C8522C"/>
		</radialGradient>
		<polygon clip-path="url(#SVGID_5_)" fill="url(#SVGID_6_)" points="88.2,9.7 129.6,6.6 132,39.6 90.7,42.7 		"/>
	</g>
	<g>
		<defs>
			<path id="SVGID_7_" d="M129.8,31.2c11.4-6,15.6-4.7,18.2-2.7c-4.5-6.7-10.9-12.2-18.4-15.4C128.3,18.9,128.4,25.1,129.8,31.2"/>
		</defs>
		<clipPath id="SVGID_8_">
			<use xlink:href="#SVGID_7_"  overflow="visible"/>
		</clipPath>
		
			<radialGradient id="SVGID_9_" cx="-191.2276" cy="333.799" r="1.3153" gradientTransform="matrix(13.8598 3.3459 1.3223 -5.4774 2347.7261 2489.8438)" gradientUnits="userSpaceOnUse">
			<stop  offset="0" style="stop-color:#3F3F3E"/>
			<stop  offset="0.1615" style="stop-color:#3D3D3B"/>
			<stop  offset="0.372" style="stop-color:#373735"/>
			<stop  offset="0.6094" style="stop-color:#2D2C2A"/>
			<stop  offset="0.862" style="stop-color:#1D1C1A"/>
			<stop  offset="1" style="stop-color:#1D1C1A"/>
		</radialGradient>
		<polygon clip-path="url(#SVGID_8_)" fill="url(#SVGID_9_)" points="129.4,8.6 152.1,14.1 146.9,35.7 124.2,30.2 		"/>
	</g>
	<g opacity="0.5">
		<g>
			<defs>
				<rect id="SVGID_10_" x="95.7" y="26.9" width="52.9" height="13.3"/>
			</defs>
			<clipPath id="SVGID_11_">
				<use xlink:href="#SVGID_10_"  overflow="visible"/>
			</clipPath>
			<path clip-path="url(#SVGID_11_)" fill="#575756" d="M147.9,28.5c-2.5-2-6.7-3.3-18.2,2.7c-0.4,0.2-0.8,0.4-1.2,0.6
				c-14.6,7.9-24.1,7.3-29.8,4.5c-1.2-0.6-2.2-1.3-3.1-2c0.5,0.5,2.1,1.9,3.7,4.3c5.9,2.5,15.5,2.7,30-5.1c0.4-0.2,0.8-0.4,1.2-0.6
				c10.7-5.5,15.2-5,17.9-3.4C148.4,29.2,148.2,28.8,147.9,28.5"/>
		</g>
	</g>
	<g>
		<defs>
			<path id="SVGID_12_" d="M84.4,20.2c-3.7,4.7-9.6,13.7-7.6,22.4c0,0,11.3-5.2,17.9-4.7l-7.2-20.3C86.5,18.5,85.4,19.3,84.4,20.2"
				/>
		</defs>
		<clipPath id="SVGID_13_">
			<use xlink:href="#SVGID_12_"  overflow="visible"/>
		</clipPath>
		
			<radialGradient id="SVGID_14_" cx="-188.3449" cy="333.1848" r="1.3153" gradientTransform="matrix(9.4399 2.2789 2.4235 -10.0387 1061.8955 3808.7617)" gradientUnits="userSpaceOnUse">
			<stop  offset="0" style="stop-color:#EBC030"/>
			<stop  offset="0.1145" style="stop-color:#E9BC30"/>
			<stop  offset="0.2637" style="stop-color:#E4B030"/>
			<stop  offset="0.4321" style="stop-color:#DD9C30"/>
			<stop  offset="0.6146" style="stop-color:#D5832F"/>
			<stop  offset="0.8065" style="stop-color:#CB602D"/>
			<stop  offset="0.862" style="stop-color:#C8522C"/>
			<stop  offset="1" style="stop-color:#C8522C"/>
		</radialGradient>
		<polygon clip-path="url(#SVGID_13_)" fill="url(#SVGID_14_)" points="75.9,13.1 100.4,19 93.6,47.2 69.1,41.3 		"/>
	</g>
	<g>
		<defs>
			<path id="SVGID_15_" d="M98.5,48.6l4.7-1.7c-0.6-2.8-1.7-5.1-2.9-7c-1.9-3.1-3.9-5-4.6-5.6c-0.1-0.1-0.2-0.2-0.2-0.2
				c-2.1-1.8-3.3-3.7-3.9-5.2L98.5,48.6z"/>
		</defs>
		<clipPath id="SVGID_16_">
			<use xlink:href="#SVGID_15_"  overflow="visible"/>
		</clipPath>
		
			<radialGradient id="SVGID_17_" cx="-191.3674" cy="327.7504" r="1.3153" gradientTransform="matrix(10.3107 -3.6524 -3.6524 -10.3107 3267.6604 2715.8396)" gradientUnits="userSpaceOnUse">
			<stop  offset="0" style="stop-color:#4A4A49"/>
			<stop  offset="1" style="stop-color:#1D1C1A"/>
		</radialGradient>
		<polygon clip-path="url(#SVGID_16_)" fill="url(#SVGID_17_)" points="85.4,31.2 101.9,25.4 109.3,46.4 92.9,52.2 		"/>
	</g>
	<g>
		<defs>
			<path id="SVGID_18_" d="M83.5,26.6c-3,1.1-4.6,4.4-3.6,7.5c1.1,3,4.4,4.6,7.5,3.6c3-1.1,4.6-4.4,3.5-7.5
				c-0.8-2.4-3.1-3.9-5.5-3.9C84.8,26.2,84.1,26.3,83.5,26.6"/>
		</defs>
		<clipPath id="SVGID_19_">
			<use xlink:href="#SVGID_18_"  overflow="visible"/>
		</clipPath>
		
			<radialGradient id="SVGID_20_" cx="-181.4776" cy="320.8198" r="1.3153" gradientTransform="matrix(4.5635 -1.6165 -1.6165 -4.5635 1430.4812 1199.8748)" gradientUnits="userSpaceOnUse">
			<stop  offset="0" style="stop-color:#7EBBDC"/>
			<stop  offset="3.763440e-002" style="stop-color:#7EBBDC"/>
			<stop  offset="0.6587" style="stop-color:#2192CD"/>
			<stop  offset="0.9731" style="stop-color:#176DAE"/>
			<stop  offset="1" style="stop-color:#176DAE"/>
		</radialGradient>
		<polygon clip-path="url(#SVGID_19_)" fill="url(#SVGID_20_)" points="74.9,27.6 90.5,22.1 95.9,37.3 80.3,42.8 		"/>
	</g>
	<g>
		<defs>
			<path id="SVGID_21_" d="M84.2,28.7c-1.9,0.7-2.8,2.7-2.2,4.6c0.7,1.9,2.7,2.8,4.6,2.2c1.9-0.7,2.8-2.7,2.2-4.6
				c-0.5-1.5-1.9-2.4-3.4-2.4C85,28.5,84.6,28.6,84.2,28.7"/>
		</defs>
		<clipPath id="SVGID_22_">
			<use xlink:href="#SVGID_21_"  overflow="visible"/>
		</clipPath>
		
			<radialGradient id="SVGID_23_" cx="-178.8398" cy="318.8893" r="1.3153" gradientTransform="matrix(4.0054 -1.4188 -1.4188 -4.0054 1255.0754 1054.4347)" gradientUnits="userSpaceOnUse">
			<stop  offset="0" style="stop-color:#575756"/>
			<stop  offset="1" style="stop-color:#1D1C1A"/>
		</radialGradient>
		<polygon clip-path="url(#SVGID_22_)" fill="url(#SVGID_23_)" points="79,29.3 88.6,26 91.9,35.3 82.3,38.7 		"/>
	</g>
	<path fill="#FFFFFF" d="M84,32.1c-0.9,0.3-2-0.2-2.3-1.1c-0.3-0.9,0.2-2,1.1-2.3c0.9-0.3,2,0.2,2.3,1.1
		C85.4,30.7,84.9,31.7,84,32.1"/>
	<path fill="#FFFFFF" d="M88.1,34.9c-0.5,0.2-1-0.1-1.2-0.6c-0.2-0.5,0.1-1,0.6-1.2c0.5-0.2,1,0.1,1.2,0.6
		C88.9,34.2,88.6,34.8,88.1,34.9"/>
	<g opacity="0.3">
		<g>
			<defs>
				<rect id="SVGID_24_" x="96.4" y="15.8" width="30.4" height="11.1"/>
			</defs>
			<clipPath id="SVGID_25_">
				<use xlink:href="#SVGID_24_"  overflow="visible"/>
			</clipPath>
			<path clip-path="url(#SVGID_25_)" fill="#FFFFFF" d="M111.7,26.8c-8.4,0.2-15.3-2.2-15.3-5.2c-0.1-3.1,6.7-5.7,15.1-5.8
				c8.4-0.2,15.3,2.2,15.3,5.2C126.9,24.1,120.1,26.7,111.7,26.8"/>
		</g>
	</g>
	<g>
		<defs>
			<path id="SVGID_26_" d="M27.2,37.7c0.9,3.6,2.1,6.8,3.4,9.6c13.3,27.9,45.4,19,50.8,16.9c-3.1-8.6-9.9-16.4-19.8-21.7
				c-3.6-1.9-7.4-3.3-11.3-4.3c-4.2-1.1-8.5-1.6-12.7-1.6C34.1,36.6,30.6,37,27.2,37.7"/>
		</defs>
		<clipPath id="SVGID_27_">
			<use xlink:href="#SVGID_26_"  overflow="visible"/>
		</clipPath>
		
			<radialGradient id="SVGID_28_" cx="-195.1318" cy="336.0854" r="1.3153" gradientTransform="matrix(23.4038 1.306 -2.3364 11.8211 5420.5835 -3667.0012)" gradientUnits="userSpaceOnUse">
			<stop  offset="0" style="stop-color:#4A4A49"/>
			<stop  offset="0.3253" style="stop-color:#4A4A49"/>
			<stop  offset="1" style="stop-color:#1D1C1A"/>
		</radialGradient>
		<polygon clip-path="url(#SVGID_27_)" fill="url(#SVGID_28_)" points="19.7,74.7 80.8,78.1 89,37 27.8,33.6 		"/>
	</g>
	<g>
		<defs>
			<path id="SVGID_29_" d="M12.5,43.6c-2.8,1.8-5.4,4-7.6,6.5c3.1,8.6,9.9,16.4,19.8,21.6c0.4,0.2,0.7,0.4,1.1,0.6
				c19.3,9.5,43.2,5.9,55.6-8.2c-4.4,2.6-39.4,26.6-66.4-22C14.2,42.6,13.4,43.1,12.5,43.6"/>
		</defs>
		<clipPath id="SVGID_30_">
			<use xlink:href="#SVGID_29_"  overflow="visible"/>
		</clipPath>
		
			<radialGradient id="SVGID_31_" cx="-196.0108" cy="335.8708" r="1.3153" gradientTransform="matrix(28.3029 1.5794 -2.8255 14.2955 6551.2915 -4429.3027)" gradientUnits="userSpaceOnUse">
			<stop  offset="0" style="stop-color:#4A4A49"/>
			<stop  offset="0.3845" style="stop-color:#4A4A49"/>
			<stop  offset="1" style="stop-color:#1D1C1A"/>
		</radialGradient>
		<polygon clip-path="url(#SVGID_30_)" fill="url(#SVGID_31_)" points="-4.6,90.1 80.6,94.9 90.9,42.6 5.7,37.9 		"/>
	</g>
	<g>
		<defs>
			<path id="SVGID_32_" d="M46.4,14.6c-0.4,10.5,3.1,18,7.6,23.2c2.8,0.9,5.6,2.1,8.2,3.4c2.5,1.3,4.8,2.8,6.9,4.4
				c0.4-2.5,1-5,1.8-7.4c-0.7-4.5-2.2-9.1-4.6-13.6c-1.5-2.9-3.3-5.6-5.3-7.9C57,12,52.3,8.5,47.4,6.4C46.8,9.3,46.5,12,46.4,14.6"
				/>
		</defs>
		<clipPath id="SVGID_33_">
			<use xlink:href="#SVGID_32_"  overflow="visible"/>
		</clipPath>
		
			<radialGradient id="SVGID_34_" cx="-192.9163" cy="342.3198" r="1.3153" gradientTransform="matrix(7.2383 9.7618 5.7661 -4.2755 -514.891 3373.7493)" gradientUnits="userSpaceOnUse">
			<stop  offset="0" style="stop-color:#4A4A49"/>
			<stop  offset="0.3253" style="stop-color:#4A4A49"/>
			<stop  offset="1" style="stop-color:#1D1C1A"/>
		</radialGradient>
		<polygon clip-path="url(#SVGID_33_)" fill="url(#SVGID_34_)" points="62,-5.5 89.7,31.7 54.8,57.6 27.2,20.3 		"/>
	</g>
	<g>
		<defs>
			<path id="SVGID_35_" d="M90.3,15.8c-0.9,0.5-1.8,1.1-2.6,1.7c-0.1,0-0.1,0.1-0.2,0.1l4,11.4c0.6,1.4,1.9,3.4,3.9,5.2
				c0.1-2.9-0.4-5.8-1.1-8.5c-1.2-4.7-3.2-8.5-4-10L90.3,15.8z"/>
		</defs>
		<clipPath id="SVGID_36_">
			<use xlink:href="#SVGID_35_"  overflow="visible"/>
		</clipPath>
		
			<radialGradient id="SVGID_37_" cx="-188.9475" cy="330.8635" r="1.3153" gradientTransform="matrix(9.8956 0 0 -9.8956 1962.6459 3296.9834)" gradientUnits="userSpaceOnUse">
			<stop  offset="0" style="stop-color:#4A4A49"/>
			<stop  offset="1" style="stop-color:#1D1C1A"/>
		</radialGradient>
		<rect x="87.6" y="15.7" clip-path="url(#SVGID_36_)" fill="url(#SVGID_37_)" width="8" height="18.4"/>
	</g>
	<g>
		<defs>
			<path id="SVGID_38_" d="M38.8,4.2C39,19.5,42.2,29.5,46.6,36c1.4,0.2,2.7,0.5,4,0.8c1.1,0.3,2.3,0.6,3.4,1
				c-4.5-5.2-8-12.7-7.6-23.2c0.1-2.6,0.4-5.3,1-8.2c-0.6-0.3-1.2-0.5-1.8-0.7C43.4,4.8,41.1,4.3,38.8,4.2L38.8,4.2z"/>
		</defs>
		<clipPath id="SVGID_39_">
			<use xlink:href="#SVGID_38_"  overflow="visible"/>
		</clipPath>
		
			<radialGradient id="SVGID_40_" cx="-196.5906" cy="339.698" r="1.3153" gradientTransform="matrix(8.7446 19.9037 11.7566 -5.1652 -2216.0918 5698.5508)" gradientUnits="userSpaceOnUse">
			<stop  offset="0" style="stop-color:#4A4A49"/>
			<stop  offset="0.3845" style="stop-color:#4A4A49"/>
			<stop  offset="1" style="stop-color:#1D1C1A"/>
		</radialGradient>
		<polygon clip-path="url(#SVGID_39_)" fill="url(#SVGID_40_)" points="51.6,-1.4 66.4,32.4 41.3,43.5 26.4,9.6 		"/>
	</g>
	<g>
		<defs>
			<path id="SVGID_41_" d="M36.8,4.1c-2.3,0.1-4.5,0.5-6.6,1.3c-0.9,7.4,0.6,15.9,4.9,23.9c0.2,0.3,0.3,0.6,0.5,0.9
				c1,1.8,2.1,3.5,3.3,5.1c2.6,0.1,5.2,0.3,7.7,0.7c-4.4-6.6-7.6-16.6-7.8-31.8c-0.5,0-1-0.1-1.5-0.1C37.1,4.1,37,4.1,36.8,4.1"/>
		</defs>
		<clipPath id="SVGID_42_">
			<use xlink:href="#SVGID_41_"  overflow="visible"/>
		</clipPath>
		
			<radialGradient id="SVGID_43_" cx="-196.5591" cy="339.805" r="1.3153" gradientTransform="matrix(8.4763 19.2928 11.3958 -5.0067 -2154.0708 5521.0449)" gradientUnits="userSpaceOnUse">
			<stop  offset="0" style="stop-color:#4A4A49"/>
			<stop  offset="0.3845" style="stop-color:#4A4A49"/>
			<stop  offset="1" style="stop-color:#1D1C1A"/>
		</radialGradient>
		<polygon clip-path="url(#SVGID_42_)" fill="url(#SVGID_43_)" points="43.8,-2.2 58.3,30.9 32.1,42.4 17.5,9.3 		"/>
	</g>
	<g>
		<defs>
			<path id="SVGID_44_" d="M96.6,49.1c-0.7,0.2-1.3,0.5-1.9,0.8c-1.2,0.6-2.4,1.3-3.5,2.1c-1.1,0.8-2.2,1.6-3.2,2.5
				c-1,0.9-2,1.8-3,2.7c-1,0.9-1.9,1.8-2.9,2.7l-0.7,0.7l-0.1,0.1c0.5,1,0.9,2.1,1.3,3.2l0,0.1c0.1-0.1,0.2-0.1,0.3-0.2l0.4-0.3
				l0.2-0.2l0.2-0.1l0.1-0.1l0.7-0.7c0.9-1,1.8-2,2.7-3c0.9-1,1.7-2,2.6-2.9c0.9-1,1.7-1.9,2.7-2.8c0.5-0.4,0.9-0.9,1.4-1.3
				c0.5-0.4,1-0.8,1.5-1.3c0.5-0.4,1-0.8,1.6-1.2c0.5-0.4,1.1-0.7,1.7-1.1C97.9,48.7,97.2,48.9,96.6,49.1 M70.5,46.7
				c1.6,1.3,3,2.7,4.3,4.1c0.2-0.7,0.3-1.4,0.6-2c0.3-1,0.6-1.9,1.1-2.8c0.2-0.5,0.4-0.9,0.7-1.3c0.2-0.4,0.4-0.7,0.6-1
				c1.2-0.6,2.5-1.2,3.8-1.8c1.4-0.6,2.8-1.2,4.3-1.7c0.7-0.3,1.5-0.5,2.2-0.8c0.7-0.2,1.5-0.5,2.2-0.7c0.4-0.1,0.7-0.2,1.1-0.3
				c0.4-0.1,0.8-0.2,1.1-0.2c0.8-0.2,1.5-0.2,2.3-0.3c-6.6-0.5-17.9,4.7-17.9,4.7c-0.5-2.3-0.5-4.6-0.1-6.9c0,0,0,0,0,0
				c0.1-0.3,0.1-0.7,0.2-1c0-0.1,0-0.1,0-0.1c0.1-0.3,0.1-0.6,0.2-0.9c0-0.1,0-0.1,0.1-0.2c0.1-0.3,0.2-0.6,0.3-0.8
				c0-0.1,0-0.2,0.1-0.2c0.1-0.3,0.2-0.5,0.3-0.8c0-0.1,0.1-0.2,0.1-0.3c0.1-0.3,0.2-0.5,0.3-0.8c0-0.1,0.1-0.2,0.1-0.3
				c0.1-0.2,0.2-0.5,0.3-0.7c0-0.1,0.1-0.2,0.1-0.3c0.1-0.2,0.2-0.5,0.3-0.7c0-0.1,0.1-0.2,0.1-0.3c0.1-0.2,0.2-0.5,0.4-0.7
				c0.1-0.1,0.1-0.2,0.2-0.3c0.1-0.2,0.2-0.4,0.4-0.7c0.1-0.1,0.1-0.2,0.2-0.3c0.1-0.2,0.2-0.4,0.4-0.6c0.1-0.1,0.1-0.2,0.2-0.3
				c0.1-0.2,0.2-0.4,0.4-0.6c0.1-0.1,0.1-0.2,0.2-0.3c0.1-0.2,0.2-0.4,0.4-0.6c0.1-0.1,0.1-0.2,0.2-0.3c0.1-0.2,0.2-0.4,0.4-0.5
				c0.1-0.1,0.1-0.2,0.2-0.3c0.1-0.2,0.2-0.3,0.4-0.5c0.1-0.1,0.1-0.2,0.2-0.3c0.1-0.2,0.2-0.3,0.4-0.5c0.1-0.1,0.1-0.2,0.2-0.2
				c0.1-0.2,0.2-0.3,0.3-0.5c0.1-0.1,0.1-0.1,0.2-0.2c0.1-0.1,0.2-0.3,0.3-0.4c0,0,0,0,0,0C76.6,27.1,71.8,36.6,70.5,46.7"/>
		</defs>
		<clipPath id="SVGID_45_">
			<use xlink:href="#SVGID_44_"  overflow="visible"/>
		</clipPath>
		
			<radialGradient id="SVGID_46_" cx="-195.2888" cy="332.3741" r="1.3153" gradientTransform="matrix(24.0891 0 0 -24.0891 4793.5479 8043.6382)" gradientUnits="userSpaceOnUse">
			<stop  offset="0" style="stop-color:#4A4A49"/>
			<stop  offset="1" style="stop-color:#1D1C1A"/>
		</radialGradient>
		<rect x="70.5" y="20.2" clip-path="url(#SVGID_45_)" fill="url(#SVGID_46_)" width="28" height="43.6"/>
	</g>
	<g>
		<defs>
			<path id="SVGID_47_" d="M92.4,38.2c-0.4,0.1-0.8,0.2-1.1,0.2c-0.4,0.1-0.7,0.2-1.1,0.3c-0.7,0.2-1.5,0.4-2.2,0.7
				c-0.7,0.2-1.5,0.5-2.2,0.8c-1.4,0.5-2.9,1.1-4.3,1.7c-1.3,0.6-2.6,1.2-3.8,1.8c-0.2,0.3-0.4,0.7-0.6,1c-0.2,0.4-0.5,0.9-0.7,1.3
				c-0.4,0.9-0.8,1.9-1.1,2.8c-0.2,0.7-0.4,1.3-0.6,2c2.7,2.9,4.9,6.2,6.5,9.7l0.1-0.1l0.7-0.7c0.9-0.9,1.9-1.8,2.9-2.7
				c1-0.9,2-1.8,3-2.7c1-0.8,2.1-1.7,3.2-2.5c1.1-0.8,2.3-1.5,3.5-2.1c0.6-0.3,1.2-0.6,1.9-0.8c0.6-0.2,1.3-0.4,1.9-0.5l-3.8-10.7
				C94,38,93.2,38.1,92.4,38.2"/>
		</defs>
		<clipPath id="SVGID_48_">
			<use xlink:href="#SVGID_47_"  overflow="visible"/>
		</clipPath>
		
			<radialGradient id="SVGID_49_" cx="-191.5849" cy="331.176" r="1.3153" gradientTransform="matrix(13.0982 0 0 -13.0982 2601.1611 4381.0732)" gradientUnits="userSpaceOnUse">
			<stop  offset="0" style="stop-color:#FFFFFF"/>
			<stop  offset="0.4892" style="stop-color:#FFFFFF"/>
			<stop  offset="1" style="stop-color:#C6C6C4"/>
		</radialGradient>
		<rect x="74.8" y="37.9" clip-path="url(#SVGID_48_)" fill="url(#SVGID_49_)" width="23.7" height="22.5"/>
	</g>
	<g>
		<defs>
			<path id="SVGID_50_" d="M38.3,80.6c0,0-5.1-1.1-8.4,2.7c0,0-0.1,0.4,0.2,0.3c0.3-0.1,2.7-1.8,6.2-0.2c3.4,1.6,2.5,6.3,1,8.1
				c-1.5,1.8,3.3-0.4,3.6-3.3c0,0,0.1,1.9-1.7,3.8c-1.8,1.9,4-0.1,4.5-4.3c0,0,0.6,1.5-1.5,4c-2,2.5,5.8-1.3,4.3-6.5
				C45,80,40.9,81,40.9,81l1.5-2.5c-1-0.1-1.9-0.2-2.8-0.4C39.2,79,38.7,80,38.3,80.6"/>
		</defs>
		<clipPath id="SVGID_51_">
			<use xlink:href="#SVGID_50_"  overflow="visible"/>
		</clipPath>
		
			<linearGradient id="SVGID_52_" gradientUnits="userSpaceOnUse" x1="-192.5085" y1="330.2445" x2="-191.1932" y2="330.2445" gradientTransform="matrix(12.7158 0 0 -12.7158 2477.7825 4285.5532)">
			<stop  offset="0" style="stop-color:#1D1C1A"/>
			<stop  offset="0.2784" style="stop-color:#1E1D1B"/>
			<stop  offset="0.4589" style="stop-color:#22211F"/>
			<stop  offset="0.6116" style="stop-color:#292826"/>
			<stop  offset="0.7488" style="stop-color:#32312F"/>
			<stop  offset="0.8745" style="stop-color:#3C3C3A"/>
			<stop  offset="0.9922" style="stop-color:#494948"/>
			<stop  offset="1" style="stop-color:#4A4A49"/>
		</linearGradient>
		<rect x="29.8" y="78.2" clip-path="url(#SVGID_51_)" fill="url(#SVGID_52_)" width="18.1" height="16.1"/>
	</g>
	<g>
		<defs>
			<path id="SVGID_53_" d="M29.6,81.3c0,0-5.1-1.9-9.7,1.7l1.7,0h0l1.7,0c1,0.1,2.1,0.4,3.3,1.2c2.3,1.6,1.8,4.6,0.6,6.8
				c-0.5,1-1.2,1.8-1.9,2.4c-2.1,1.7,3,0.3,4.5-2.6c0.1-0.2,0.2-0.4,0.3-0.6c0,0.1-0.1,0.3-0.2,0.6c-0.3,0.8-1,2.2-2.7,3.4
				c-2.4,1.8,3.9,0.6,5.8-3.6c0.1-0.1,0.1-0.3,0.2-0.5c0,0,0,0.2-0.1,0.5c-0.1,0.7-0.7,2.1-2.7,3.8c-2.5,2.1,3.9,0.2,5.9-4.1
				c0.4-0.8,0.6-1.7,0.6-2.6c-0.1-3-1.2-4.4-2.4-5c-1.2-0.6-2.4-0.5-2.4-0.5l4.2-4.6l-3.6-0.6C32.9,77.1,30.9,80.2,29.6,81.3"/>
		</defs>
		<clipPath id="SVGID_54_">
			<use xlink:href="#SVGID_53_"  overflow="visible"/>
		</clipPath>
		
			<linearGradient id="SVGID_55_" gradientUnits="userSpaceOnUse" x1="-192.8811" y1="330.3339" x2="-191.5651" y2="330.3339" gradientTransform="matrix(13.061 0 0 -13.061 2539.0889 4401.2759)">
			<stop  offset="0" style="stop-color:#4A4A49"/>
			<stop  offset="0.3253" style="stop-color:#4A4A49"/>
			<stop  offset="1" style="stop-color:#1D1C1A"/>
		</linearGradient>
		<rect x="19.9" y="77.1" clip-path="url(#SVGID_54_)" fill="url(#SVGID_55_)" width="17.2" height="19.4"/>
	</g>
	<g>
		<defs>
			<path id="SVGID_56_" d="M24.6,38.3c-3.4,0.9-6.6,2.2-9.5,3.8v0c27,48.6,62,24.7,66.4,22c-5.4,2.1-37.5,11-50.8-16.9
				c-1.3-2.8-2.5-6-3.4-9.6C26.3,37.8,25.5,38.1,24.6,38.3"/>
		</defs>
		<clipPath id="SVGID_57_">
			<use xlink:href="#SVGID_56_"  overflow="visible"/>
		</clipPath>
		
			<radialGradient id="SVGID_58_" cx="-195.6708" cy="334.558" r="1.3153" gradientTransform="matrix(22.5679 11.8048 6.9728 -13.3303 2134.5908 6823.0562)" gradientUnits="userSpaceOnUse">
			<stop  offset="0" style="stop-color:#4A4A49"/>
			<stop  offset="0.3845" style="stop-color:#4A4A49"/>
			<stop  offset="1" style="stop-color:#1D1C1A"/>
		</radialGradient>
		<polygon clip-path="url(#SVGID_57_)" fill="url(#SVGID_58_)" points="29.3,10.4 103.2,49 67.2,117.9 -6.7,79.3 		"/>
	</g>
</g>
</svg>
