<?xml version="1.0" encoding="utf-8"?>
<!-- Generator: Adobe Illustrator 18.1.1, SVG Export Plug-In . SVG Version: 6.00 Build 0)  -->
<svg version="1.1" id="Capa_1" xmlns="http://www.w3.org/2000/svg" xmlns:xlink="http://www.w3.org/1999/xlink" x="0px" y="0px"
	 width="18.5px" height="21.5px" viewBox="0 0 18.5 21.5" enable-background="new 0 0 18.5 21.5" xml:space="preserve">
<g>
	<path fill-rule="evenodd" clip-rule="evenodd" fill="#525263" d="M7.2,12.9c-0.2,0-0.4,0-0.7,0c-0.5,0-0.8-0.3-0.8-0.8
		c0-1.4,0-2.9,0-4.3c0-0.8,0.6-1.4,1.4-1.4c1.5,0,2.9,0,4.4,0c0.8,0,1.4,0.6,1.4,1.4c0,1.4,0,2.8,0,4.2c0,0.5-0.3,0.8-0.8,0.8
		c-0.2,0-0.4,0-0.6,0c0,0.2,0,0.3,0,0.4c0,1.2,0,2.4,0,3.7c0,0.6-0.3,0.9-0.9,0.9c-0.8,0-1.6,0-2.4,0c-0.7,0-0.9-0.3-0.9-0.9
		c0-1.2,0-2.4,0-3.6C7.2,13.2,7.2,13,7.2,12.9z"/>
	<path fill-rule="evenodd" clip-rule="evenodd" fill="#525263" d="M2.8,17.9c0.3,0.2,0.5,0.4,0.8,0.5c1.1,0.5,2.3,0.7,3.5,0.8
		c2.2,0.2,4.3,0.2,6.4-0.3c0.6-0.1,1.2-0.4,1.7-0.6c0.2-0.1,0.4-0.2,0.7-0.4c-0.4-0.2-0.8-0.5-1.1-0.6c-0.6-0.2-1.3-0.4-2-0.5
		c-0.3-0.1-0.5-0.2-0.6-0.6c-0.1-0.3,0.1-0.6,0.3-0.7c0.1-0.1,0.3-0.1,0.5-0.1c1,0.2,2,0.4,2.9,0.9c0.2,0.1,0.4,0.2,0.5,0.3
		c1,0.8,1,1.9,0,2.6c-0.8,0.6-1.7,0.9-2.7,1.1c-2.2,0.5-4.4,0.5-6.6,0.3c-1.2-0.1-2.4-0.3-3.5-0.7c-0.6-0.2-1.3-0.5-1.7-1
		c-0.6-0.6-0.6-1.4,0-2.1c0.4-0.5,1-0.8,1.7-1c0.7-0.2,1.3-0.4,2-0.5c0.4-0.1,0.8,0.1,0.9,0.5c0.1,0.4-0.2,0.7-0.6,0.8
		c-0.5,0.1-1,0.2-1.5,0.4C3.8,17.2,3.3,17.4,2.8,17.9z"/>
	<path fill-rule="evenodd" clip-rule="evenodd" fill="#525263" d="M9.3,1.1c1.4,0,2.5,1.1,2.5,2.5c0,1.4-1.1,2.5-2.5,2.5
		C8,6.1,6.8,5,6.8,3.6C6.8,2.2,7.9,1.1,9.3,1.1z"/>
</g>
</svg>
