<?xml version="1.0" encoding="utf-8"?>
<!-- Generator: Adobe Illustrator 18.1.1, SVG Export Plug-In . SVG Version: 6.00 Build 0)  -->
<svg version="1.1" id="Capa_1" xmlns="http://www.w3.org/2000/svg" xmlns:xlink="http://www.w3.org/1999/xlink" x="0px" y="0px"
	 width="25.8px" height="25.8px" viewBox="0 0 25.8 25.8" enable-background="new 0 0 25.8 25.8" xml:space="preserve">
<g>
	<path fill-rule="evenodd" clip-rule="evenodd" fill="#525263" d="M0,12.9C0,5.8,5.8,0,12.9,0C20,0,25.8,5.8,25.8,12.9
		c0,7.1-5.9,13-13,12.9C5.7,25.8,0,20,0,12.9z M18.6,6c-0.6-0.1-1.2-0.1-1.3-0.3c-0.5-0.7-1.1-0.7-1.9-0.8c0.1,0.7,0.1,1.2,0.2,1.5
		c-0.2,0.6-0.3,1-0.4,1.4c-0.1,0-0.4,0-0.4-0.1c-0.4-1-1.3-1.1-2.2-1.3c-0.6-0.1-1-0.8-0.5-1.3c0.6-0.6,1.3-1.4,2.5-1.3
		c-0.1-0.3-0.1-0.6-0.2-0.8c-0.3,0.2-0.7,0.4-1,0.5c-0.9-0.8-1.6-1.1-2.1-0.9c0.2,0.2,0.4,0.3,0.6,0.5C11.3,3.7,10.1,3.6,9.7,3
		C9.6,2.9,9.2,2.9,9,2.8C9,2.8,9,2.9,8.9,3c0.2,0.1,0.3,0.2,0.7,0.4c-0.8,0.1-1.5-0.1-2,0.2C6,4.4,4.8,5.6,3.8,7.2
		c0.5,0.5,1.1,1,1.6,1.5c-0.5,0.5-0.6,2-0.2,2.6c0.7,1.1,1.5,2.2,2.3,3.3c0,0.1,0.1,0.1,0.3,0.1c-0.2-0.5-0.4-0.9-0.6-1.4
		c0.1,0,0.1-0.1,0.2-0.1c0.6,1.1,1.3,2.2,2,3.2c0.1,0.2,0.3,0.4,0.5,0.5c0.7,0.2,1.4,0.3,2,0.6c0.7,0.4,1.3,1,2,1.5
		c0.3,0.2,0.5,0.4,0.8,0.6c0.1,0.1,0.3,0,0.3-0.1c-0.3-0.4-0.7-0.7-0.8-1.1c0-1.1,0-1.1-1.1-1.1c0.1-0.5,0.2-0.9,0.3-1.3
		c-0.1-0.1-0.1-0.1-0.2-0.2c-0.2,0.2-0.4,0.4-0.6,0.5c-0.3,0.1-0.7,0.3-1,0.2c-0.7-0.3-0.8-2.4,0-2.7c0.8-0.3,1.7-0.6,2.5-0.1
		c0.3,0.2,0.5,0.7,0.9,1.2c0-0.6,0-0.9,0-1.2c0-0.2-0.3-0.6-0.2-0.6c0.7-0.6,0.9-1.3,1.3-2.1c0.5-0.8,1.6-1.3,2.5-2
		C18.3,9,18.1,8.7,18,8.4c0.7-0.1,1.5-0.3,2.6-0.6C19.7,7,19.1,6.4,18.6,6z M14.6,23.5c2.5-0.5,4.4-1.5,6-3.1
		c-0.4-0.3-0.8-0.7-1.3-1c-0.5-0.2-1.1-0.3-1.5-0.5c-1.3-0.6-2.4,0.1-2.3,1.5c0,0.3,0,0.5-0.1,0.8C15.1,22,14.9,22.7,14.6,23.5z"/>
</g>
</svg>
